<?xml version="1.0" encoding="UTF-8"?>
<svg enable-background="new 0 0 549.8 181.9" version="1.1" viewBox="0 0 549.8 181.9" xml:space="preserve" xmlns="http://www.w3.org/2000/svg">
<style type="text/css">
	.st0{fill:#7E3995;}
	.st1{fill:#461E5D;}
	.st2{fill:#FFFFFF;}
	.st3{fill:#EED9EA;}
</style>
<path class="st0" d="m22.6 172.5h121.6c11.6 0 21-9.4 21-21v-121.6c0-11.6-9.4-21-21-21h-121.6c-11.6 0-21 9.4-21 21v121.6c0 11.6 9.4 21 21 21z"/>
	<path class="st1" d="m155.7 169c-4.9-1-9.7-2.7-14.4-4.5-5.4-2.1-10.6-4.5-15.6-7.4-10.2-5.8-19.5-13.1-27.6-21.6-1-1-5.2-5.8-5.4-6.1-3.5-3.9-9-12-10.5-14.8-3-4.9-6-10.7-8.2-16-1.8-4.4-4.5-11.8-5.8-17.9-4.4-18.7-4.3-38.3 0.2-57 1.2-5.1 3-10 4.6-14.9-4.1 0-46-0.1-51.2 0-9.1 0.2-20.1 7.6-20.2 21.1v121.8c0 11.2 9.6 20.9 21.1 20.8h122.7c4.6-0.2 8.5-2.3 10.3-3.5z"/>
		<rect class="st2" transform="matrix(.7071 .7071 -.7071 .7071 51.792 -66.549)" x="99.4" y="22.4" width="13.7" height="13.7"/>
	<path class="st2" d="m76.3 98.9c6 0.4 12 0.4 17.9 0.1 5.7-0.3 11.5-0.9 16.9-2.8 5-1.8 9.5-4.7 12.3-9.4 2.7-4.5 3.4-9.9 3.3-15.1-0.2-5.7-1.6-11.5-4.2-16.6-2.4-4.8-6.1-9.3-11.1-11.5-5.1-2.2-11-1.3-15.3 2.3s-7 9.1-7.9 14.6c-1 5.8-0.5 12 4.5 15.9 4.9 3.8 11.9 4.3 17.9 4.5-3.3 0.7-6.9 0.7-10.3 0.8-3.7 0.1-7.5 0.2-11.2 0.2-6.9 0-13.9 0-20.7-1.2 0.6 3.6 2.2 10.2 5.8 17.9-0.1 0.1 1.6 0.2 2.1 0.3 3.1 0.2-0.7-0.1 0 0zm31.4-32c-1.5-0.2-3-0.5-4.4-1-1.2-0.3-2.6-0.7-3.5-1.6-0.9-0.8-0.3-2.4 0-3.3 0.5-1.2 1.2-2.4 2.2-3.2 5.3-4 9.6 5 10.6 8.9-1.5 0.6-3.3 0.4-4.9 0.2-1-0.1 1 0.2 0 0z"/>
	<path class="st3" d="m57.7 74.5c0.2-1.9 1.1-3.9 1.9-5.6 0.4-0.9 2.6-4.1 2.4-4.3-1.1-1-7-5.9-10-8.5-1-0.8-1.9-1.6-2.9-2.4-4.4 7.8-8.6 16.1-6.3 25.2 2 8.1 8.6 13.6 16.1 16.4 4.9 1.8 10 2.9 15.2 3.4-1.9-4.4-4.2-10.9-5.8-17.9 0 0-2.1-0.4-2.7-0.5-1.9-0.5-3.9-1.1-5.6-2.1-1.6-0.9-2.4-2-2.3-3.7z"/>
	<path class="st2" d="m121.9 93.9c-5.4 5.4-10 7-16.9 8.4-3.1 7.3-9.7 12.2-18.8 12.8-1.3 0-2.6-0.1-3.9-0.3 3.2 5.2 6.7 10.1 10.5 14.8 16.9-3.7 28.8-17.8 29.1-35.7z"/>
	<path class="st3" d="m65.8 101.7c-7-1.2-12.7-4.6-16.6-7.6 0.1 7.2 2.2 14 5.8 19.6-0.1 0.1-26 26.2-26 26.2-2.9 2.9-2.9 7.7 0 10.6s7.7 2.9 10.6 0l26.2-26.1c5.9 4.4 15 6.2 20.3 6 2.3-0.1 4.5-0.4 6.6-0.8-3.8-4.6-7.3-9.5-10.5-14.8-7.4-1.4-13.6-6.3-16.4-13.1z"/>
		<rect class="st1" transform="matrix(-.7071 -.7071 .7071 -.7071 257.19 414.76)" x="207.7" y="147.3" width="13.7" height="13.7"/>
	<path class="st1" d="m256.9 112.5c-0.5-1.6-1.1-3.1-1.8-4.7s-1.4-3.1-2.2-4.7c-0.7-1.5-1.5-2.9-2.2-4.3-0.7-1.3-1.4-2.5-2.1-3.6l-13.5 8.8c1.2 1.8 2.2 3.3 3 4.7s1.6 2.7 2.2 3.8c0.7 1.2 1.3 2.3 1.8 3.4 0.6 1.1 1.2 2.3 1.9 3.5-2.2 0.9-4.7 1.6-7.3 2.2s-5.3 1.1-7.9 1.5c-2.7 0.4-5.2 0.7-7.7 0.8-2.5 0.2-4.6 0.3-6.5 0.3-3.5 0-6.9-0.1-10.1-0.4-3.3-0.2-6.2-0.6-8.7-1.2-2.6-0.6-4.6-1.3-6.2-2.2s-2.3-2-2.3-3.3c0-0.6 0.1-1.3 0.4-2.2s0.6-1.8 1-2.7c0.4-1 0.9-1.9 1.4-2.8s1-1.8 1.5-2.6l-12.9-11c-0.9 1.7-1.8 3.3-2.7 5s-1.6 3.3-2.3 5-1.2 3.3-1.6 5-0.6 3.4-0.6 5.1c0.2 3.7 1 7 2.4 9.7s3.3 5 5.6 6.9 4.9 3.4 7.8 4.6 5.9 2.1 9.1 2.7c3.1 0.7 6.2 1.1 9.4 1.3 3.1 0.2 6 0.3 8.7 0.3 1.7 0 3.6-0.1 5.8-0.2 2.1-0.2 4.4-0.4 6.7-0.7s4.7-0.8 7.1-1.3c2.4-0.6 4.8-1.2 7-2 2.3-0.8 4.4-1.7 6.4-2.7s3.8-2.2 5.3-3.6c1.5-1.3 2.8-2.8 3.7-4.5 0.9-1.6 1.5-3.4 1.6-5.4 0.1-1.3-0.1-2.7-0.3-4.1 0.1-1.3-0.3-2.8-0.9-4.4z"/>
	<polygon class="st1" points="301.6 152.3 293.3 144.1 285 152.5 293.4 160.9 301.6 152.7 309.8 160.9 318.2 152.6 309.8 144.2"/>
	<path class="st1" d="m318.3 107.8c-0.6-2.2-1.4-4.3-2.2-6.5s-1.7-4.3-2.5-6.3l-15.6 7.7 2.7 5.4s1.7 3.5 2.5 5.2c0.8 1.6 1.4 3 1.8 4.3 0.5 1.2 0.7 2.2 0.7 2.8s-0.2 1-0.7 1.4c-0.4 0.4-1 0.8-1.7 1.1s-1.5 0.6-2.4 0.8-1.8 0.4-2.8 0.5c-0.9 0.1-1.9 0.2-2.8 0.3s-1.7 0.1-2.4 0.1h-8.8c-1.1 0-2-0.1-2.7-0.4s-1.2-0.9-1.5-1.6-0.5-1.6-0.5-2.7v-3.5c0-3.8 0.1-7.7 0.2-11.8s0.1-8.2 0.1-12.4-0.2-8.3-0.5-12.4-0.8-8.1-1.6-11.9l-16.3 5c0.6 4.1 1.1 8.2 1.3 12.3 0.2 4 0.4 8.1 0.5 12 0.1 4 0.1 7.9 0 11.9-0.1 3.9-0.1 7.9-0.1 11.8 0 3 0.4 5.7 1.2 8.3 0.8 2.5 2 4.7 3.8 6.6 1.7 1.9 4 3.3 6.7 4.4 2.6 1 5.8 1.5 9.5 1.6h9.4c3.7 0 7.2-0.4 10.5-1.2s6.1-2.1 8.5-3.8 4.3-4 5.7-6.7 2.1-6 2.1-9.8c0-1.9-0.2-3.8-0.6-6-0.3-2.2-0.8-4.4-1.5-6.5z"/>
	<polygon class="st0" points="372.3 93.6 380.6 101.9 388.9 93.5 380.5 85.1 372.3 93.2 364.1 85 355.7 93.4 364.1 101.8"/>
		<rect class="st0" transform="matrix(.7071 .7071 -.7071 .7071 186.31 -286.87)" x="432.6" y="74.6" width="13.7" height="13.7"/>
	<path class="st0" d="m454.9 107.8c-0.6-2.2-1.4-4.3-2.2-6.5s-1.7-4.3-2.5-6.3l-15.6 7.7 2.7 5.4s1.7 3.5 2.5 5.2c0.8 1.6 1.4 3 1.8 4.3 0.5 1.2 0.7 2.2 0.7 2.8 0 0.8-0.4 1.5-1.2 2s-1.8 1-2.9 1.3-2.4 0.6-3.7 0.7-2.5 0.2-3.5 0.2h-5.3c-1.4 0-2.7-0.1-3.8-0.4s-2.1-0.7-2.9-1.2-1.3-1.1-1.7-1.8-0.5-1.5-0.3-2.3l1.9-10.6-15.5-3.9c-0.3 1.5-0.7 2.9-1 4.4s-0.8 2.8-1.3 4.1-1.1 2.5-1.8 3.6-1.5 2.1-2.5 2.9c-1.2 1-2.8 1.9-4.6 2.6s-3.8 1.2-6.1 1.6-4.7 0.7-7.3 0.8-5.5 0.2-8.4 0.2c-3.2 0-6.2-0.1-9.2-0.2-2.9-0.1-5.6-0.3-8-0.7s-4.5-1-6.2-1.8-3-1.9-3.7-3.3c-0.4-0.7-0.6-1.6-0.6-2.6 0-1.1 0.1-2.2 0.3-3.4s0.6-2.4 1-3.7c0.4-1.2 0.9-2.4 1.4-3.4l-13.3-7.7c-1.4 2.8-2.5 5.5-3.4 8-0.9 2.6-1.5 5-1.8 7.4s-0.2 4.7 0.2 7 1.3 4.6 2.6 7c1.4 2.5 3.3 4.7 5.8 6.5s5.5 3.4 8.9 4.6 7.4 2.1 11.7 2.7c4.4 0.6 9.1 0.9 14.2 0.9 3.8 0 7.3-0.2 10.7-0.5 3.3-0.3 6.5-0.9 9.4-1.6s5.6-1.7 8.1-2.9 4.8-2.7 6.8-4.4c2.3 3.2 5.1 5.5 8.4 7s7.2 2.3 11.8 2.3h6.1c3.7 0 7.2-0.4 10.3-1.2s5.8-2.1 8-3.8 4-4 5.2-6.7 1.9-6 1.9-9.8c0-1.9-0.2-3.8-0.6-6-0.3-2.2-0.8-4.4-1.5-6.5z"/>
		<rect class="st0" transform="matrix(.7071 .7071 -.7071 .7071 203.56 -348.01)" x="515.1" y="64.9" width="13.7" height="13.7"/>
	<path class="st0" d="m542.9 108.4c-0.4-2.4-1.1-4.7-1.9-6.9s-1.8-4.4-3.1-6.4c-1.2-2-2.6-3.8-4.2-5.3s-3.3-2.7-5.3-3.6c-1.9-0.9-4-1.3-6.3-1.3-1.9 0-3.6 0.3-5.2 1s-3.1 1.6-4.4 2.7-2.5 2.4-3.5 4c-1 1.5-1.9 3.1-2.6 4.8s-1.2 3.4-1.6 5.2c-0.3 1.8-0.5 3.6-0.5 5.3 0 3 0.6 5.4 1.7 7.4s2.7 3.5 4.8 4.7c2 1.2 4.4 2 7.2 2.5s5.8 0.8 9.1 0.9c-0.8 0.2-1.9 0.3-3.2 0.5-1.3 0.1-2.7 0.2-4.3 0.3s-3.1 0.1-4.8 0.2c-1.6 0-3.2 0.1-4.6 0.1h-3.8-2.2-2.6c-0.3-2.2-0.9-4.5-1.5-6.8-0.7-2.3-1.5-4.5-2.5-6.6s-2.1-4.1-3.4-5.9-2.7-3.4-4.3-4.8c-1.6-1.3-3.3-2.4-5.2-3.2s-3.8-1.2-5.9-1.2c-1.7 0-3.4 0.4-5.1 1.1s-3.2 1.7-4.6 3-2.8 2.8-4 4.4c-1.2 1.7-2.2 3.5-3.1 5.4s-1.5 3.9-2 5.9-0.7 3.9-0.7 5.8c0 3.1 0.5 5.8 1.5 8.1s2.4 4.3 4.2 6 4 2.9 6.5 3.8 5.3 1.5 8.4 1.8c0.3 0 0.7 0 1.1 0.1 0.4 0 0.9 0 1.4 0.1 0.5 0 1 0.1 1.5 0.1h1.4c-0.9 1.4-2.3 2.8-4 4.1s-3.8 2.6-6.2 3.8-5.2 2.3-8.2 3.3-6.3 1.9-9.9 2.7l4 16.7c4.6-1 9-2.3 13.2-4.1 4.2-1.7 8.1-3.9 11.6-6.4s6.5-5.5 9-8.8c2.6-3.3 4.4-7.1 5.7-11.2h3.7c3.4 0 6.8-0.1 10-0.3 3.3-0.2 6.4-0.6 9.3-1.2s5.6-1.5 8-2.6c2.4-1.2 4.5-2.7 6.3-4.7s3.1-4.4 4.1-7.3 1.4-6.4 1.4-10.5c0.3-2.1 0.1-4.3-0.4-6.7zm-57.9 16c-1.1 0-2.1-0.1-3.3-0.2-1.1-0.1-2.2-0.2-3.3-0.4s-2-0.4-2.9-0.7-1.5-0.6-2-1-0.8-0.9-0.8-1.4c0-0.8 0.2-1.7 0.5-2.6s0.7-1.8 1.3-2.7 1.2-1.5 1.9-2.1c0.7-0.5 1.5-0.8 2.3-0.8 1.2 0 2.3 0.4 3.4 1.1 1 0.7 2 1.7 2.8 2.8s1.4 2.4 2 3.8c0.5 1.4 0.8 2.8 1 4.1-0.9 0.1-1.8 0.1-2.9 0.1zm42.4-14.8c-0.9 0-1.8-0.1-2.8-0.2s-2-0.3-3-0.6c-1-0.2-1.9-0.5-2.7-0.8s-1.4-0.6-1.9-0.9-0.7-0.7-0.7-1c0-0.7 0.1-1.4 0.4-2.3 0.3-0.8 0.6-1.6 1.2-2.2 0.5-0.7 1.1-1.2 1.8-1.7s1.6-0.6 2.5-0.5c0.8 0.1 1.6 0.4 2.4 1.1s1.5 1.5 2.2 2.4c0.7 1 1.3 2 1.8 3.1s0.9 2.2 1.2 3.2c-0.8 0.3-1.5 0.4-2.4 0.4z"/>
</svg>
